<svg width="107" height="23" viewBox="0 0 107 23" fill="none" xmlns="http://www.w3.org/2000/svg">
<path d="M21.8819 19.0755C19.6963 19.0755 18.3762 17.5019 18.3762 14.8793V5.56006H14.4073V15.1066C14.4073 19.9148 17.1873 22.7385 21.8819 22.7385C26.5765 22.7385 29.3304 19.8886 29.3304 15.1066V5.56006H25.3613V14.8793C25.3613 17.5019 24.0413 19.0755 21.8732 19.0755H21.8819ZM57.6642 5.56006H53.4679C53.1707 8.52367 50.5304 10.8054 46.8849 11.7583V0H42.916V22.3801H46.8849V17.5019C46.8849 16.6627 47.4357 15.8584 48.205 15.5174L53.739 22.3801H58.3898L51.5534 13.8564C54.5607 12.0118 57.0261 9.11814 57.6642 5.56006ZM31.0264 22.3801H34.9954V14.652C34.9954 10.2546 37.3908 8.65479 41.3511 9.38914V5.24534C39.2354 5.13169 37.452 5.27156 35.6074 6.15452C31.551 8.06907 31.0264 11.7408 31.0264 15.701V22.3801ZM75.1664 14.1274C75.1664 19.163 78.8119 22.7385 83.9174 22.7385C87.3619 22.7385 90.1856 21.1212 91.6892 18.245L88.2273 16.6714C87.1083 18.4461 85.8144 19.2504 84.0572 19.2504C81.5744 19.2504 79.6162 17.703 79.3889 15.5349C80.7527 15.8497 82.2564 16.0332 83.7863 16.0332C86.3128 16.0332 89.0753 15.5349 92.1264 14.5296C92.1701 14.0488 92.1701 13.8652 92.1701 13.5942C92.1701 8.74223 88.6382 5.18413 83.8562 5.18413C79.0741 5.18413 75.1751 8.987 75.1751 14.1187H75.1664V14.1274ZM79.3539 12.2566C79.6948 10.2284 81.6968 8.61108 83.8649 8.61108C86.033 8.61108 87.7203 10.141 88.0088 12.2566C86.6887 12.6238 85.2987 12.8074 83.7688 12.8074C82.2389 12.8074 80.7876 12.6238 79.3451 12.2566H79.3539ZM66.3715 8.86462C68.5396 8.86462 69.8597 10.4382 69.8597 13.0609V22.3801H73.8288V12.8336C73.8288 8.05158 71.0487 5.20162 66.3803 5.20162C61.7119 5.20162 58.9056 8.02536 58.9056 12.8336V22.3801H62.8746V13.0609C62.8746 10.4382 64.1947 8.86462 66.3803 8.86462H66.3715ZM9.59904 15.4038C9.59904 17.2484 9.14436 19.0755 7.00249 19.0755C3.85526 19.0755 3.96894 15.2202 3.96894 12.9909V9.24928H0V12.9909C0 17.7729 0.935355 22.7473 6.81019 22.7473C11.3474 22.7473 13.4194 19.7836 13.4194 15.4125H9.59029H9.59904V15.4038ZM0.00864413 0V5.56006C0.00864413 7.58825 1.53858 9.24928 3.42692 9.24928H9.9924V5.56006H3.97769V0H0.00864413ZM103.011 15.4038C103.011 17.2484 102.556 19.0755 100.414 19.0755C97.2669 19.0755 97.3805 15.2202 97.3805 12.9909V9.24928H93.4116V12.9909C93.4116 17.7729 94.3469 22.7473 100.222 22.7473C104.759 22.7473 106.831 19.7836 106.831 15.4125H103.002L103.011 15.4038ZM93.4203 0V5.56006C93.4203 7.58825 94.9501 9.24928 96.8385 9.24928H103.404V5.56006H97.3892V0H93.4203Z" fill="#471E50"/>
</svg>
